<svg version="1.0" xmlns="http://www.w3.org/2000/svg"
 width="200.000000pt" height="200.000000pt" viewBox="0 0 200.000000 200.000000"
 preserveAspectRatio="xMidYMid meet">

<g transform="translate(0.000000,200.000000) scale(0.100000,-0.100000)"
fill="red" stroke="none">
<path d="M210 1077 c0 -508 3 -958 6 -1000 l7 -77 48 0 49 0 2 485 3 485 45
-31 c25 -16 77 -47 115 -67 68 -36 73 -37 175 -36 85 0 115 4 158 22 28 12 76
32 105 44 74 31 220 31 295 0 28 -12 76 -32 105 -44 44 -19 71 -22 177 -23
113 0 133 3 201 28 l76 28 6 112 c4 62 7 305 7 541 0 339 -3 427 -12 423 -119
-53 -147 -60 -239 -65 -114 -5 -171 6 -284 57 -76 34 -86 36 -185 36 -99 -1
-110 -3 -185 -36 -44 -20 -104 -41 -133 -48 -121 -26 -258 -6 -371 54 -51 27
-77 35 -118 35 l-53 0 0 -923z m860 714 l0 -148 53 -6 c30 -3 93 -22 141 -41
49 -20 104 -40 124 -44 l37 -8 3 -177 2 -177 83 0 c74 0 149 13 200 35 16 7
17 -4 17 -143 l0 -151 -54 -20 c-63 -24 -161 -36 -210 -27 l-36 7 0 148 0 149
-52 12 c-29 7 -81 25 -116 41 -52 23 -149 49 -184 49 -4 0 -8 -70 -8 -155 l0
-155 -33 0 c-47 0 -139 -26 -197 -55 -28 -14 -70 -28 -95 -32 l-45 -6 0 151 0
150 -102 4 c-105 5 -174 24 -245 68 l-33 20 0 176 c0 96 3 174 8 172 116 -60
216 -88 315 -88 l57 0 0 -176 0 -177 40 7 c22 3 84 24 138 45 53 21 118 42
145 46 l47 6 0 176 0 176 -53 -6 c-28 -3 -91 -21 -139 -41 -48 -20 -108 -39
-133 -43 l-45 -6 0 150 0 149 63 13 c34 7 98 28 142 46 47 20 98 34 123 35
l42 0 0 -149z m658 -58 l-3 -148 -55 -18 c-30 -10 -97 -21 -147 -24 l-93 -6 0
154 0 154 98 1 c62 1 111 7 137 17 69 27 66 32 63 -130z"/>
</g>
</svg>
