<svg width="95" height="128" xmlns="http://www.w3.org/2000/svg">
 <title>ball</title>

 <g>
  <title>background</title>
  <rect fill="none" id="canvas_background" height="402" width="582" y="-1" x="-1"/>
 </g>
 <g>
  <title>Layer 1</title>
  <path id="svg_1" d="m46.413,0.147c-1.43,0.646 -1.431,0.65 -1.431,9.221l0,7.193l-3.504,0c-4.952,0 -6.29,0.491 -7.578,2.778c-0.741,1.316 -0.715,1.006 -0.753,8.868l-0.035,7.105l-1.037,0.359c-17.373,6.022 -29.551,21.113 -31.827,39.44c-0.242,1.947 -0.278,8.672 -0.057,10.471c1.747,14.187 8.686,25.903 20.109,33.95c11.9,8.383 27.903,10.765 41.776,6.218c27.516,-9.019 40.708,-40.165 27.987,-66.078c-5.524,-11.252 -16.252,-20.61 -27.688,-24.154l-0.609,-0.189l-0.035,-7.114c-0.038,-7.872 -0.012,-7.561 -0.753,-8.877c-1.288,-2.287 -2.626,-2.778 -7.575,-2.778l-3.501,0l-0.029,-7.402l-0.03,-7.402l-0.267,-0.516c-0.545,-1.053 -2.079,-1.583 -3.163,-1.093zm10.147,21.443l0.282,0.221l0,11.31l-18.805,0l0,-11.31l0.282,-0.221c0.444,-0.349 17.798,-0.349 18.242,0l-0.001,0zm-7.198,16.45c32.889,1.594 51.705,38.189 33.799,65.736c-16.778,25.812 -54.653,25.812 -71.445,0c-17.84,-27.423 0.93,-64.16 33.586,-65.734c0.911,-0.044 1.704,-0.086 1.763,-0.094s1.093,0.033 2.297,0.092z" fill="#fff"/>
 </g>
</svg>