<?xml version="1.0" ?><svg data-name="Layer 1" id="Layer_1" viewBox="0 0 64 64" xmlns="http://www.w3.org/2000/svg"><title/><desc/><path d="M39.06,55A23,23,0,0,1,20.93,17.89,23,23,0,1,0,50.21,52.13,22.82,22.82,0,0,1,39.06,55Z" style="fill:#cff09e"/><path d="M36.06,8h-8a4,4,0,0,0-4,4v7a3,3,0,0,0,6,0V17h4v2a3,3,0,0,0,6,0V12A4,4,0,0,0,36.06,8Z" style="fill:#a8dba8"/><path d="M32.06,3h0a3,3,0,0,1,3,3V8a0,0,0,0,1,0,0h-6a0,0,0,0,1,0,0V6A3,3,0,0,1,32.06,3Z" style="fill:#a8dba8"/><path d="M49.85,33.7a4,4,0,0,1-3.58,0l-4.42-2.21a4,4,0,0,0-3.58,0L33.85,33.7a4,4,0,0,1-3.58,0l-4.42-2.21a4,4,0,0,0-3.58,0L17.85,33.7a4,4,0,0,1-3.58,0L10,31.56A23,23,0,0,0,9.06,38a23.27,23.27,0,0,0,.16,2.65,4.76,4.76,0,0,1,.53.19l4.52,2.26a4,4,0,0,0,3.58,0l4.42-2.21a4,4,0,0,1,3.58,0l4.42,2.21a4,4,0,0,0,3.58,0l4.42-2.21a4,4,0,0,1,3.58,0l4.42,2.21a4,4,0,0,0,3.58,0l4.52-2.26a4.93,4.93,0,0,1,.54-.19A25.83,25.83,0,0,0,55.06,38a23,23,0,0,0-.93-6.46Z" style="fill:#79bd9a"/><path d="M41.06,15.77V12a5,5,0,0,0-5-5V6a4,4,0,1,0-8,0V7a5,5,0,0,0-5,5v3.75a24,24,0,1,0,18,0ZM53.93,40,49.4,42.23a3,3,0,0,1-2.68,0L42.3,40a5,5,0,0,0-4.47,0L33.4,42.23a3,3,0,0,1-2.68,0L26.3,40a5,5,0,0,0-4.47,0L17.4,42.23a3,3,0,0,1-2.68,0L10.2,40l0,0Q10.06,39,10.06,38a21.4,21.4,0,0,1,.59-5l3.18,1.59a5,5,0,0,0,4.47,0l4.42-2.21a3,3,0,0,1,2.68,0l4.43,2.21a5,5,0,0,0,4.47,0l4.42-2.21a3,3,0,0,1,2.68,0l4.43,2.21a5.06,5.06,0,0,0,4.47,0L53.48,33a21.93,21.93,0,0,1,.58,5c0,.65,0,1.29-.08,1.92ZM30.06,6a2,2,0,0,1,4,0V7h-4Zm-2,3h8a3,3,0,0,1,3,3v7a2,2,0,0,1-4,0V16a1,1,0,0,0-1-1h-4a1,1,0,0,0-1,1v3a2,2,0,0,1-4,0V12A3,3,0,0,1,28.06,9Zm-5,8.92V19a4,4,0,0,0,8,0V17h2v2a4,4,0,0,0,8,0V17.94A22.13,22.13,0,0,1,52.92,31.05L49.4,32.81a3,3,0,0,1-2.68,0L42.3,30.6a5,5,0,0,0-4.47,0L33.4,32.81a3,3,0,0,1-2.68,0L26.3,30.6a5,5,0,0,0-4.47,0L17.4,32.81a3,3,0,0,1-2.68,0L11.2,31.05A22.16,22.16,0,0,1,23.06,17.94Zm9,42.08A22,22,0,0,1,10.49,42.35L13.83,44a5,5,0,0,0,4.47,0l4.42-2.21a3,3,0,0,1,2.68,0L29.83,44a5,5,0,0,0,4.47,0l4.42-2.21a3,3,0,0,1,2.68,0L45.83,44a5.06,5.06,0,0,0,4.47,0l3.33-1.67A22,22,0,0,1,32.06,60Z" style="fill:#3b8686"/><path d="M41.94,28.14a1,1,0,0,0,.71.29,1,1,0,0,0,.7-.29l.71-.71.71.71a1,1,0,0,0,1.41,0,1,1,0,0,0,0-1.41l-.7-.71.7-.71a1,1,0,1,0-1.41-1.41l-.71.7-.71-.7a1,1,0,1,0-1.41,1.41l.71.71-.71.71A1,1,0,0,0,41.94,28.14Z" style="fill:#3b8686"/><path d="M29.06,30a.93.93,0,0,0,.5-.14l.87-.5.5.87a1,1,0,0,0,1.36.37,1,1,0,0,0,.37-1.37l-.5-.87.87-.5a1,1,0,0,0-1-1.73l-.87.5-.5-.86a1,1,0,1,0-1.73,1l.5.86-.87.5a1,1,0,0,0,.5,1.87Z" style="fill:#3b8686"/><path d="M18.06,27h1v1a1,1,0,0,0,2,0V27h1a1,1,0,0,0,0-2h-1V24a1,1,0,0,0-2,0v1h-1a1,1,0,0,0,0,2Z" style="fill:#3b8686"/><path d="M29.29,46.15l-.86.5-.5-.86a1,1,0,1,0-1.73,1l.5.86-.87.5a1,1,0,0,0,.5,1.87.93.93,0,0,0,.5-.14l.87-.5.5.87a1,1,0,0,0,.86.5,1,1,0,0,0,.87-1.5l-.5-.87.86-.5a1,1,0,0,0,.37-1.36A1,1,0,0,0,29.29,46.15Z" style="fill:#3b8686"/><path d="M21.06,49h-1V48a1,1,0,0,0-2,0v1h-1a1,1,0,1,0,0,2h1v1a1,1,0,0,0,2,0V51h1a1,1,0,0,0,0-2Z" style="fill:#3b8686"/><path d="M39.06,54h-1V53a1,1,0,0,0-2,0v1h-1a1,1,0,0,0,0,2h1v1a1,1,0,1,0,2,0V56h1a1,1,0,0,0,0-2Z" style="fill:#3b8686"/><path d="M44.18,45.9a1,1,0,0,0-1.41,0l-.71.7-.71-.7a1,1,0,0,0-1.41,1.41l.71.71-.71.71a1,1,0,0,0,0,1.41,1,1,0,0,0,.71.29,1,1,0,0,0,.7-.29l.71-.71.71.71a1,1,0,0,0,1.41,0,1,1,0,0,0,0-1.41l-.7-.71.7-.71A1,1,0,0,0,44.18,45.9Z" style="fill:#3b8686"/><circle cx="26.06" cy="55.02" r="1" style="fill:#3b8686"/><circle cx="36.06" cy="48.02" r="1" style="fill:#3b8686"/><circle cx="38.06" cy="26.02" r="1" style="fill:#3b8686"/></svg>